<svg width="18" height="18" viewBox="0 0 18 18" fill="none" xmlns="http://www.w3.org/2000/svg">
<path d="M16.1007 14.6326L10.4773 9.03045L16.0204 3.34709C16.422 2.94114 16.422 2.21042 16.0204 1.80447C15.6187 1.39851 14.8957 1.39851 14.494 1.80447L8.95097 7.48782L3.3276 1.88566C2.92593 1.4797 2.20292 1.4797 1.80125 1.88566C1.39958 2.29161 1.39958 3.02233 1.80125 3.42828L7.42463 9.03045L1.96192 14.6326C1.56025 15.0386 1.56025 15.7693 1.96192 16.1752C2.20292 16.4188 2.44392 16.5 2.76526 16.5C3.00626 16.5 3.3276 16.4188 3.5686 16.1752L9.11164 10.4919L14.735 16.094C14.976 16.3376 15.217 16.4188 15.5384 16.4188C15.7794 16.4188 16.1007 16.3376 16.3417 16.094C16.5827 15.7693 16.5827 15.0386 16.1007 14.6326Z" fill="#D30018"/>
</svg>
