<svg width="24" height="24" viewBox="0 0 24 24" fill="none" xmlns="http://www.w3.org/2000/svg">
<path fill-rule="evenodd" clip-rule="evenodd" d="M3.51465 10.8115C2.85881 10.8115 2.32715 11.3431 2.32715 11.999C2.32715 12.6548 2.85881 13.1865 3.51465 13.1865H10.8124V20.4842C10.8124 21.1401 11.3441 21.6717 11.9999 21.6717C12.6558 21.6717 13.1874 21.1401 13.1874 20.4842V13.1864H20.4852C21.1411 13.1864 21.6727 12.6548 21.6727 11.999C21.6727 11.3431 21.1411 10.8115 20.4852 10.8115H13.1874V3.51367C13.1874 2.85783 12.6558 2.32617 11.9999 2.32617C11.3441 2.32617 10.8124 2.85783 10.8124 3.51367V10.8115H3.51465Z" fill="#151515"/>
</svg>
